solid Exported from Blender-2.77 (sub 0)
facet normal 0.000000 -0.203958 0.978980
outer loop
vertex 1.603033 -1.373621 5.387775
vertex 1.600009 -0.862767 5.494205
vertex -1.600009 -0.862767 5.494205
endloop
endfacet
facet normal 0.000000 -0.203958 0.978980
outer loop
vertex -1.600009 -0.862767 5.494205
vertex -1.603033 -1.373621 5.387775
vertex 1.603033 -1.373621 5.387775
endloop
endfacet
facet normal 0.137192 -0.989966 -0.033855
outer loop
vertex 1.353062 -1.348827 3.649817
vertex 1.603033 -1.373621 5.387775
vertex 1.206586 -1.410135 4.848967
endloop
endfacet
facet normal 0.137190 -0.989966 -0.033853
outer loop
vertex 1.206586 -1.372670 3.753432
vertex 0.404209 -1.484036 3.758463
vertex -0.000124 -1.521277 3.208936
endloop
endfacet
facet normal 0.137196 -0.989965 -0.033855
outer loop
vertex 1.353062 -1.348827 3.649817
vertex 1.206586 -1.410135 4.848967
vertex 1.206586 -1.372670 3.753432
endloop
endfacet
facet normal 0.137193 -0.989966 -0.033858
outer loop
vertex 1.206586 -1.372670 3.753432
vertex -0.000124 -1.521277 3.208936
vertex 1.353062 -1.348827 3.649817
endloop
endfacet
facet normal -0.652005 -0.158341 0.741497
outer loop
vertex 1.600009 -0.862767 5.494205
vertex 1.603033 -1.373621 5.387775
vertex 2.004131 -1.373893 5.740406
endloop
endfacet
facet normal -0.656628 -0.164630 0.736027
outer loop
vertex 2.004131 -1.373893 5.740406
vertex 1.996827 -0.823605 5.856975
vertex 1.600009 -0.862767 5.494205
endloop
endfacet
facet normal -0.137186 -0.989967 -0.033835
outer loop
vertex -1.206586 -1.410141 4.848883
vertex -1.603033 -1.373621 5.387775
vertex -1.353308 -1.348828 3.649817
endloop
endfacet
facet normal -0.137184 -0.989968 -0.033833
outer loop
vertex -1.353308 -1.348828 3.649817
vertex -0.000124 -1.521277 3.208936
vertex -0.404395 -1.484036 3.758463
endloop
endfacet
facet normal -0.137183 -0.989968 -0.033835
outer loop
vertex -1.206586 -1.372701 3.753433
vertex -1.206586 -1.410141 4.848883
vertex -1.353308 -1.348828 3.649817
endloop
endfacet
facet normal -0.137184 -0.989968 -0.033833
outer loop
vertex -1.353308 -1.348828 3.649817
vertex -0.404395 -1.484036 3.758463
vertex -1.206586 -1.372701 3.753433
endloop
endfacet
facet normal 0.466530 -0.880910 -0.079668
outer loop
vertex 1.603033 -1.373621 5.387775
vertex 1.353062 -1.348827 3.649817
vertex 1.683997 -1.175072 3.666491
endloop
endfacet
facet normal 0.095703 -0.989356 -0.109620
outer loop
vertex 1.683997 -1.175072 3.666491
vertex 2.004131 -1.373893 5.740406
vertex 1.603033 -1.373621 5.387775
endloop
endfacet
facet normal 0.164810 -0.978618 -0.123064
outer loop
vertex 1.353062 -1.348827 3.649817
vertex -0.000124 -1.521277 3.208936
vertex 0.983977 -1.190946 1.900036
endloop
endfacet
facet normal 0.000000 -0.085764 0.996315
outer loop
vertex -1.609304 -0.334827 5.539651
vertex -1.600009 -0.862767 5.494205
vertex 1.600009 -0.862767 5.494205
endloop
endfacet
facet normal 0.000000 -0.085764 0.996315
outer loop
vertex 1.600009 -0.862767 5.494205
vertex 1.609304 -0.334827 5.539651
vertex -1.609304 -0.334827 5.539651
endloop
endfacet
facet normal 0.652006 -0.158341 0.741496
outer loop
vertex -2.004130 -1.373893 5.740407
vertex -1.603033 -1.373621 5.387775
vertex -1.600009 -0.862767 5.494205
endloop
endfacet
facet normal 0.656627 -0.164627 0.736029
outer loop
vertex -1.600009 -0.862767 5.494205
vertex -1.996828 -0.823605 5.856975
vertex -2.004130 -1.373893 5.740407
endloop
endfacet
facet normal -0.464701 -0.881905 -0.079353
outer loop
vertex -1.687956 -1.177919 3.710130
vertex -1.353308 -1.348828 3.649817
vertex -1.603033 -1.373621 5.387775
endloop
endfacet
facet normal -0.096483 -0.989181 -0.110507
outer loop
vertex -1.603033 -1.373621 5.387775
vertex -2.004130 -1.373893 5.740407
vertex -1.687956 -1.177919 3.710130
endloop
endfacet
facet normal -0.164817 -0.978614 -0.123088
outer loop
vertex -0.000124 -1.521277 3.208936
vertex -1.353308 -1.348828 3.649817
vertex -0.983976 -1.190947 1.900036
endloop
endfacet
facet normal 0.464531 -0.867832 -0.176288
outer loop
vertex 1.683997 -1.175072 3.666491
vertex 1.353062 -1.348827 3.649817
vertex 0.983977 -1.190946 1.900036
endloop
endfacet
facet normal 0.631835 -0.735770 -0.243775
outer loop
vertex 0.983977 -1.190946 1.900036
vertex 1.217947 -0.912834 1.667051
vertex 1.683997 -1.175072 3.666491
endloop
endfacet
facet normal 0.000000 0.059631 0.998221
outer loop
vertex -1.600192 0.217640 5.506648
vertex -1.609304 -0.334827 5.539651
vertex 1.609304 -0.334827 5.539651
endloop
endfacet
facet normal 0.000000 0.059631 0.998221
outer loop
vertex 1.609304 -0.334827 5.539651
vertex 1.600192 0.217640 5.506648
vertex -1.600192 0.217640 5.506648
endloop
endfacet
facet normal 0.671033 -0.051852 0.739612
outer loop
vertex -1.996828 -0.823605 5.856975
vertex -1.600009 -0.862767 5.494205
vertex -1.609304 -0.334827 5.539651
endloop
endfacet
facet normal 0.669493 -0.049627 0.741158
outer loop
vertex -1.609304 -0.334827 5.539651
vertex -2.000338 -0.262765 5.897699
vertex -1.996828 -0.823605 5.856975
endloop
endfacet
facet normal -0.671034 -0.051853 0.739612
outer loop
vertex 1.609304 -0.334827 5.539651
vertex 1.600009 -0.862767 5.494205
vertex 1.996827 -0.823605 5.856975
endloop
endfacet
facet normal -0.669495 -0.049627 0.741157
outer loop
vertex 1.996827 -0.823605 5.856975
vertex 2.000337 -0.262765 5.897699
vertex 1.609304 -0.334827 5.539651
endloop
endfacet
facet normal -0.472802 -0.863071 -0.177670
outer loop
vertex -0.983976 -1.190947 1.900036
vertex -1.353308 -1.348828 3.649817
vertex -1.687956 -1.177919 3.710130
endloop
endfacet
facet normal -0.633640 -0.735085 -0.241144
outer loop
vertex -1.687956 -1.177919 3.710130
vertex -1.217947 -0.912835 1.667052
vertex -0.983976 -1.190947 1.900036
endloop
endfacet
facet normal -0.000000 -0.642175 -0.766558
outer loop
vertex -1.217947 -0.912835 1.667052
vertex 1.217947 -0.912834 1.667051
vertex 0.983977 -1.190946 1.900036
endloop
endfacet
facet normal 0.000000 -0.642173 -0.766559
outer loop
vertex 0.983977 -1.190946 1.900036
vertex -0.983976 -1.190947 1.900036
vertex -1.217947 -0.912835 1.667052
endloop
endfacet
facet normal 0.000000 0.193041 0.981191
outer loop
vertex -1.601600 0.800876 5.391901
vertex -1.600192 0.217640 5.506648
vertex 1.600192 0.217640 5.506648
endloop
endfacet
facet normal 0.000000 0.193041 0.981191
outer loop
vertex 1.600192 0.217640 5.506648
vertex 1.601600 0.800876 5.391901
vertex -1.601600 0.800876 5.391901
endloop
endfacet
facet normal 0.678223 0.032669 0.734130
outer loop
vertex -2.000338 -0.262765 5.897699
vertex -1.609304 -0.334827 5.539651
vertex -1.600192 0.217640 5.506648
endloop
endfacet
facet normal 0.661310 0.057939 0.747871
outer loop
vertex -1.600192 0.217640 5.506648
vertex -1.996828 0.317327 5.849654
vertex -2.000338 -0.262765 5.897699
endloop
endfacet
facet normal -0.678224 0.032668 0.734129
outer loop
vertex 1.600192 0.217640 5.506648
vertex 1.609304 -0.334827 5.539651
vertex 2.000337 -0.262765 5.897699
endloop
endfacet
facet normal -0.661311 0.057939 0.747871
outer loop
vertex 2.000337 -0.262765 5.897699
vertex 1.996827 0.317327 5.849654
vertex 1.600192 0.217640 5.506648
endloop
endfacet
facet normal 0.281187 -0.952771 0.114718
outer loop
vertex 1.217947 0.204566 1.664231
vertex 1.684851 0.581612 3.651278
vertex 2.005985 0.924411 5.711192
endloop
endfacet
facet normal 0.989420 0.017911 0.143969
outer loop
vertex 2.005985 0.924411 5.711192
vertex 1.996827 0.317327 5.849654
vertex 2.000337 -0.262765 5.897699
endloop
endfacet
facet normal 0.990171 -0.016284 0.138909
outer loop
vertex 2.000337 -0.262765 5.897699
vertex 1.996827 -0.823605 5.856975
vertex 2.004131 -1.373893 5.740406
endloop
endfacet
facet normal 0.408899 0.912255 0.024338
outer loop
vertex 2.004131 -1.373893 5.740406
vertex 1.683997 -1.175072 3.666491
vertex 1.217947 -0.912834 1.667051
endloop
endfacet
facet normal 0.981580 -0.000482 -0.191051
outer loop
vertex 1.217947 -0.912834 1.667051
vertex 1.217947 0.204566 1.664231
vertex 2.005985 0.924411 5.711192
endloop
endfacet
facet normal 0.999626 -0.000459 0.027353
outer loop
vertex 2.005985 0.924411 5.711192
vertex 2.000337 -0.262765 5.897699
vertex 2.004131 -1.373893 5.740406
endloop
endfacet
facet normal 0.981806 -0.003205 -0.189858
outer loop
vertex 2.005985 0.924411 5.711192
vertex 2.004131 -1.373893 5.740406
vertex 1.217947 -0.912834 1.667051
endloop
endfacet
facet normal 0.640478 0.149739 0.753237
outer loop
vertex -1.600192 0.217640 5.506648
vertex -1.601600 0.800876 5.391901
vertex -2.005985 0.924411 5.711192
endloop
endfacet
facet normal 0.668818 0.174888 0.722562
outer loop
vertex -2.005985 0.924411 5.711192
vertex -1.996828 0.317327 5.849654
vertex -1.600192 0.217640 5.506648
endloop
endfacet
facet normal -0.640478 0.149740 0.753237
outer loop
vertex 2.005985 0.924411 5.711192
vertex 1.601600 0.800876 5.391901
vertex 1.600192 0.217640 5.506648
endloop
endfacet
facet normal -0.668819 0.174889 0.722561
outer loop
vertex 1.600192 0.217640 5.506648
vertex 1.996827 0.317327 5.849654
vertex 2.005985 0.924411 5.711192
endloop
endfacet
facet normal -0.193033 0.972312 -0.131713
outer loop
vertex 1.601600 0.800876 5.391901
vertex 2.005985 0.924411 5.711192
vertex 1.684851 0.581612 3.651278
endloop
endfacet
facet normal 0.000000 0.991400 -0.130867
outer loop
vertex 1.352308 0.672927 3.650199
vertex 0.983826 0.441581 1.897608
vertex -0.983826 0.441581 1.897608
endloop
endfacet
facet normal 0.263568 0.958560 -0.108142
outer loop
vertex 1.601600 0.800876 5.391901
vertex 1.684851 0.581612 3.651278
vertex 1.352308 0.672927 3.650199
endloop
endfacet
facet normal 0.193012 0.972312 -0.131739
outer loop
vertex -1.685096 0.581612 3.651278
vertex -2.005985 0.924411 5.711192
vertex -1.601600 0.800876 5.391901
endloop
endfacet
facet normal 0.000000 0.997313 -0.073265
outer loop
vertex -1.601600 0.800876 5.391901
vertex 1.601600 0.800876 5.391901
vertex 1.352308 0.672927 3.650199
endloop
endfacet
facet normal 0.000000 0.991400 -0.130867
outer loop
vertex 1.352308 0.672927 3.650199
vertex -0.983826 0.441581 1.897608
vertex -1.352554 0.672927 3.650199
endloop
endfacet
facet normal -0.263569 0.958564 -0.108106
outer loop
vertex -1.352554 0.672927 3.650199
vertex -1.685096 0.581612 3.651278
vertex -1.601600 0.800876 5.391901
endloop
endfacet
facet normal 0.000000 0.997313 -0.073264
outer loop
vertex -1.601600 0.800876 5.391901
vertex 1.352308 0.672927 3.650199
vertex -1.352554 0.672927 3.650199
endloop
endfacet
facet normal -0.407969 0.912665 0.024563
outer loop
vertex -1.217947 -0.912835 1.667052
vertex -1.687956 -1.177919 3.710130
vertex -2.004130 -1.373893 5.740407
endloop
endfacet
facet normal -0.990175 -0.016282 0.138885
outer loop
vertex -2.004130 -1.373893 5.740407
vertex -1.996828 -0.823605 5.856975
vertex -2.000338 -0.262765 5.897699
endloop
endfacet
facet normal -0.989421 0.017910 0.143961
outer loop
vertex -2.000338 -0.262765 5.897699
vertex -1.996828 0.317327 5.849654
vertex -2.005985 0.924411 5.711192
endloop
endfacet
facet normal -0.280396 -0.952982 0.114910
outer loop
vertex -2.005985 0.924411 5.711192
vertex -1.685096 0.581612 3.651278
vertex -1.217947 0.204565 1.664231
endloop
endfacet
facet normal -0.981869 -0.000479 -0.189561
outer loop
vertex -1.217947 0.204565 1.664231
vertex -1.217947 -0.912835 1.667052
vertex -2.004130 -1.373893 5.740407
endloop
endfacet
facet normal -0.999626 -0.000459 0.027343
outer loop
vertex -2.004130 -1.373893 5.740407
vertex -2.000338 -0.262765 5.897699
vertex -2.005985 0.924411 5.711192
endloop
endfacet
facet normal -0.981666 -0.003215 -0.190581
outer loop
vertex -2.004130 -1.373893 5.740407
vertex -2.005985 0.924411 5.711192
vertex -1.217947 0.204565 1.664231
endloop
endfacet
facet normal 0.261010 0.948393 -0.180067
outer loop
vertex 0.983826 0.441581 1.897608
vertex 1.352308 0.672927 3.650199
vertex 1.684851 0.581612 3.651278
endloop
endfacet
facet normal 0.533176 0.799383 -0.276967
outer loop
vertex 1.684851 0.581612 3.651278
vertex 1.217947 0.204566 1.664231
vertex 0.983826 0.441581 1.897608
endloop
endfacet
facet normal -0.261009 0.948387 -0.180103
outer loop
vertex -1.685096 0.581612 3.651278
vertex -1.352554 0.672927 3.650199
vertex -0.983826 0.441581 1.897608
endloop
endfacet
facet normal -0.533132 0.799392 -0.277024
outer loop
vertex -0.983826 0.441581 1.897608
vertex -1.217947 0.204565 1.664231
vertex -1.685096 0.581612 3.651278
endloop
endfacet
facet normal -0.000000 0.701616 -0.712555
outer loop
vertex 1.217947 0.204566 1.664231
vertex -1.217947 0.204565 1.664231
vertex -0.983826 0.441581 1.897608
endloop
endfacet
facet normal 0.000000 0.701617 -0.712554
outer loop
vertex -0.983826 0.441581 1.897608
vertex 0.983826 0.441581 1.897608
vertex 1.217947 0.204566 1.664231
endloop
endfacet
facet normal 0.000000 -0.998981 0.045127
outer loop
vertex -1.121622 -1.502439 4.693309
vertex -0.872372 -1.502439 4.693309
vertex -0.872372 -1.494442 4.870344
endloop
endfacet
facet normal 0.000000 -0.998981 0.045125
outer loop
vertex -0.872372 -1.494442 4.870344
vertex -1.121622 -1.494442 4.870344
vertex -1.121622 -1.502439 4.693309
endloop
endfacet
facet normal -1.000000 0.000000 0.000000
outer loop
vertex -0.872372 -1.494442 4.870344
vertex -0.872372 -1.502439 4.693309
vertex -0.872372 -1.510437 4.516273
endloop
endfacet
facet normal -1.000000 -0.000002 0.000000
outer loop
vertex -0.872372 -1.510437 4.516273
vertex -0.872372 -1.617569 4.521113
vertex -0.872372 -1.601573 4.875184
endloop
endfacet
facet normal -1.000000 0.000001 0.000000
outer loop
vertex -0.872372 -1.510437 4.516273
vertex -0.872372 -1.601573 4.875184
vertex -0.872372 -1.494442 4.870344
endloop
endfacet
facet normal 0.000000 -0.998981 0.045130
outer loop
vertex 1.121622 -1.542428 3.808134
vertex 1.121622 -1.502439 4.693309
vertex 0.872372 -1.502439 4.693309
endloop
endfacet
facet normal -0.000001 -0.998981 0.045130
outer loop
vertex 1.121622 -1.542428 3.808134
vertex 0.872372 -1.502439 4.693309
vertex 0.872372 -1.534430 3.985170
endloop
endfacet
facet normal 0.000000 -0.998981 0.045130
outer loop
vertex -0.872372 -1.502439 4.693309
vertex -1.121622 -1.502439 4.693309
vertex -1.121622 -1.542428 3.808134
endloop
endfacet
facet normal -0.000004 -0.998981 0.045132
outer loop
vertex -0.872372 -1.510437 4.516273
vertex -0.872372 -1.502439 4.693309
vertex -1.121622 -1.542428 3.808134
endloop
endfacet
facet normal 0.000000 -0.998981 0.045131
outer loop
vertex -1.121622 -1.542428 3.808134
vertex 1.121622 -1.542428 3.808134
vertex 0.872372 -1.534430 3.985170
endloop
endfacet
facet normal 0.000000 -0.998981 0.045133
outer loop
vertex -1.121622 -1.542428 3.808134
vertex 0.872372 -1.534430 3.985170
vertex 0.124625 -1.534430 3.985170
endloop
endfacet
facet normal 0.000000 -0.998981 0.045130
outer loop
vertex -0.373874 -1.510437 4.516273
vertex -0.872372 -1.510437 4.516273
vertex -1.121622 -1.542428 3.808134
endloop
endfacet
facet normal 0.000000 0.000000 0.000000
outer loop
vertex -1.121622 -1.494442 4.870344
vertex -0.872372 -1.494442 4.870344
vertex -0.373874 -1.494442 4.870344
endloop
endfacet
facet normal 0.000000 -0.998981 0.045129
outer loop
vertex -0.373874 -1.510437 4.516273
vertex -1.121622 -1.542428 3.808134
vertex 0.124625 -1.534430 3.985170
endloop
endfacet
facet normal 0.000000 -0.998981 0.045132
outer loop
vertex -1.121622 -1.486444 5.047379
vertex -1.121622 -1.494442 4.870344
vertex -0.373874 -1.494442 4.870344
endloop
endfacet
facet normal -0.000001 -0.998981 0.045128
outer loop
vertex -0.373874 -1.494442 4.870344
vertex -0.373874 -1.510437 4.516273
vertex 0.124625 -1.534430 3.985170
endloop
endfacet
facet normal 0.000000 -0.998981 0.045129
outer loop
vertex -0.373874 -1.494442 4.870344
vertex 0.124625 -1.534430 3.985170
vertex 0.124625 -1.494442 4.870344
endloop
endfacet
facet normal 0.000000 -0.998981 0.045132
outer loop
vertex 1.121622 -1.486444 5.047379
vertex -1.121622 -1.486444 5.047379
vertex -0.373874 -1.494442 4.870344
endloop
endfacet
facet normal 0.000000 -0.998981 0.045131
outer loop
vertex 0.872372 -1.494442 4.870344
vertex 1.121622 -1.494442 4.870344
vertex 1.121622 -1.486444 5.047379
endloop
endfacet
facet normal 0.000000 0.000000 0.000000
outer loop
vertex -0.373874 -1.494442 4.870344
vertex 0.124625 -1.494442 4.870344
vertex 0.872372 -1.494442 4.870344
endloop
endfacet
facet normal 0.000000 -0.998981 0.045131
outer loop
vertex 0.872372 -1.494442 4.870344
vertex 1.121622 -1.486444 5.047379
vertex -0.373874 -1.494442 4.870344
endloop
endfacet
facet normal 0.000000 0.045131 0.998981
outer loop
vertex -0.373874 -1.494442 4.870344
vertex -0.872372 -1.494442 4.870344
vertex -0.872372 -1.601573 4.875184
endloop
endfacet
facet normal 0.000000 0.045131 0.998981
outer loop
vertex -0.872372 -1.601573 4.875184
vertex -0.373874 -1.601573 4.875184
vertex -0.373874 -1.494442 4.870344
endloop
endfacet
facet normal 1.000000 0.000000 0.000000
outer loop
vertex -1.121622 -1.486444 5.047379
vertex -1.121622 -1.601090 5.052558
vertex -1.121622 -1.657073 3.813313
endloop
endfacet
facet normal 1.000000 0.000001 0.000000
outer loop
vertex -1.121622 -1.657073 3.813313
vertex -1.121622 -1.542428 3.808134
vertex -1.121622 -1.502439 4.693309
endloop
endfacet
facet normal 1.000000 0.000001 0.000000
outer loop
vertex -1.121622 -1.657073 3.813313
vertex -1.121622 -1.502439 4.693309
vertex -1.121622 -1.486444 5.047379
endloop
endfacet
facet normal 0.000000 -0.045127 -0.998981
outer loop
vertex 1.121622 -1.601090 5.052558
vertex -1.121622 -1.601090 5.052558
vertex -1.121622 -1.486444 5.047379
endloop
endfacet
facet normal 0.000000 -0.045127 -0.998981
outer loop
vertex -1.121622 -1.486444 5.047379
vertex 1.121622 -1.486444 5.047379
vertex 1.121622 -1.601090 5.052558
endloop
endfacet
facet normal 0.000006 -0.998981 0.045130
outer loop
vertex 1.206586 -1.659194 3.766376
vertex 1.206586 -1.598969 5.099495
vertex 1.121622 -1.601090 5.052558
endloop
endfacet
facet normal -0.000006 -0.998981 0.045129
outer loop
vertex 1.206586 -1.659194 3.766376
vertex 1.121622 -1.601090 5.052558
vertex 1.121622 -1.657073 3.813313
endloop
endfacet
facet normal -0.000006 -0.998981 0.045130
outer loop
vertex -1.121622 -1.601090 5.052558
vertex -1.206586 -1.598969 5.099495
vertex -1.206586 -1.659194 3.766376
endloop
endfacet
facet normal 0.000000 -0.998981 0.045137
outer loop
vertex 1.206586 -1.659194 3.766376
vertex 1.121622 -1.657073 3.813313
vertex -1.121622 -1.657073 3.813313
endloop
endfacet
facet normal 0.000006 -0.998981 0.045129
outer loop
vertex -1.121622 -1.657073 3.813313
vertex -1.121622 -1.601090 5.052558
vertex -1.206586 -1.659194 3.766376
endloop
endfacet
facet normal 0.000000 -0.998981 0.045138
outer loop
vertex -1.206586 -1.659194 3.766376
vertex 1.206586 -1.659194 3.766376
vertex -1.121622 -1.657073 3.813313
endloop
endfacet
facet normal 0.000000 0.045128 0.998981
outer loop
vertex -1.121622 -1.657073 3.813313
vertex 1.121622 -1.657073 3.813313
vertex 1.121622 -1.542428 3.808134
endloop
endfacet
facet normal 0.000000 0.045128 0.998981
outer loop
vertex 1.121622 -1.542428 3.808134
vertex -1.121622 -1.542428 3.808134
vertex -1.121622 -1.657073 3.813313
endloop
endfacet
facet normal -0.000002 -0.045129 -0.998981
outer loop
vertex 0.182100 -1.570405 4.814970
vertex 0.182100 -1.484031 4.811068
vertex 0.830680 -1.484105 4.811070
endloop
endfacet
facet normal -0.000002 -0.045129 -0.998981
outer loop
vertex 0.830680 -1.484105 4.811070
vertex 0.830680 -1.570480 4.814972
vertex 0.182100 -1.570405 4.814970
endloop
endfacet
facet normal -1.000000 0.000000 0.000000
outer loop
vertex 1.121622 -1.542428 3.808134
vertex 1.121622 -1.657073 3.813313
vertex 1.121622 -1.601090 5.052558
endloop
endfacet
facet normal -1.000000 0.000000 0.000000
outer loop
vertex 1.121622 -1.601090 5.052558
vertex 1.121622 -1.486444 5.047379
vertex 1.121622 -1.502439 4.693309
endloop
endfacet
facet normal -1.000000 0.000000 0.000000
outer loop
vertex 1.121622 -1.601090 5.052558
vertex 1.121622 -1.502439 4.693309
vertex 1.121622 -1.542428 3.808134
endloop
endfacet
facet normal 0.000000 -0.998981 0.045141
outer loop
vertex 1.206586 -1.598969 5.099495
vertex -1.206586 -1.598969 5.099495
vertex -1.121622 -1.601090 5.052558
endloop
endfacet
facet normal 0.000000 -0.998980 0.045144
outer loop
vertex -1.121622 -1.601090 5.052558
vertex 1.121622 -1.601090 5.052558
vertex 1.206586 -1.598969 5.099495
endloop
endfacet
facet normal -1.000000 -0.000000 0.000000
outer loop
vertex -1.206586 -1.410141 4.848883
vertex -1.206586 -1.372701 3.753433
vertex -1.206586 -1.659194 3.766376
endloop
endfacet
facet normal -1.000000 0.000000 0.000000
outer loop
vertex -1.206586 -1.659194 3.766376
vertex -1.206586 -1.598969 5.099495
vertex -1.206586 -1.393785 5.090226
endloop
endfacet
facet normal -1.000000 0.000000 0.000000
outer loop
vertex -1.206586 -1.659194 3.766376
vertex -1.206586 -1.393785 5.090226
vertex -1.206586 -1.410141 4.848883
endloop
endfacet
facet normal -1.000000 0.000001 0.000000
outer loop
vertex 0.830680 -1.602730 4.047081
vertex 0.830680 -1.570480 4.814972
vertex 0.830680 -1.484105 4.811070
endloop
endfacet
facet normal -1.000000 -0.000001 0.000000
outer loop
vertex 0.830680 -1.484105 4.811070
vertex 0.830680 -1.516356 4.043179
vertex 0.830680 -1.602730 4.047081
endloop
endfacet
facet normal 0.000000 -0.045131 -0.998981
outer loop
vertex -0.373874 -1.510437 4.516273
vertex -0.373874 -1.617569 4.521113
vertex -0.872372 -1.617569 4.521113
endloop
endfacet
facet normal 0.000000 -0.045131 -0.998981
outer loop
vertex -0.872372 -1.617569 4.521113
vertex -0.872372 -1.510437 4.516273
vertex -0.373874 -1.510437 4.516273
endloop
endfacet
facet normal 0.000003 -0.997711 0.067615
outer loop
vertex -1.603033 -1.373621 5.387775
vertex -1.206586 -1.410141 4.848883
vertex -1.206586 -1.393785 5.090226
endloop
endfacet
facet normal -0.000002 -0.997712 0.067614
outer loop
vertex 1.206586 -1.393785 5.090226
vertex 1.206586 -1.410135 4.848967
vertex 1.603033 -1.373621 5.387775
endloop
endfacet
facet normal 0.000000 -0.997712 0.067612
outer loop
vertex -1.603033 -1.373621 5.387775
vertex -1.206586 -1.393785 5.090226
vertex 1.206586 -1.393785 5.090226
endloop
endfacet
facet normal 0.000000 -0.997712 0.067612
outer loop
vertex -1.603033 -1.373621 5.387775
vertex 1.206586 -1.393785 5.090226
vertex 1.603033 -1.373621 5.387775
endloop
endfacet
facet normal 0.000000 0.045127 0.998981
outer loop
vertex 1.206586 -1.393785 5.090226
vertex -1.206586 -1.393785 5.090226
vertex -1.206586 -1.598969 5.099495
endloop
endfacet
facet normal 0.000000 0.045127 0.998981
outer loop
vertex -1.206586 -1.598969 5.099495
vertex 1.206586 -1.598969 5.099495
vertex 1.206586 -1.393785 5.090226
endloop
endfacet
facet normal 0.000000 -0.045130 -0.998981
outer loop
vertex 0.404209 -1.484036 3.758463
vertex 1.206586 -1.372670 3.753432
vertex 1.206586 -1.659194 3.766376
endloop
endfacet
facet normal 0.000001 -0.045131 -0.998981
outer loop
vertex -1.206586 -1.659194 3.766376
vertex -1.206586 -1.372701 3.753433
vertex -0.404395 -1.484036 3.758463
endloop
endfacet
facet normal 0.000000 -0.045131 -0.998981
outer loop
vertex -0.404395 -1.484036 3.758463
vertex 0.404209 -1.484036 3.758463
vertex 1.206586 -1.659194 3.766376
endloop
endfacet
facet normal 0.000000 -0.045131 -0.998981
outer loop
vertex 1.206586 -1.659194 3.766376
vertex -1.206586 -1.659194 3.766376
vertex -0.404395 -1.484036 3.758463
endloop
endfacet
facet normal 0.000001 -0.969599 -0.244700
outer loop
vertex -0.000124 -1.521277 3.208936
vertex -0.983976 -1.190947 1.900036
vertex 0.983977 -1.190946 1.900036
endloop
endfacet
facet normal -1.000000 0.000000 0.000000
outer loop
vertex 0.124625 -1.567983 4.873666
vertex 0.124625 -1.494442 4.870344
vertex 0.124625 -1.534430 3.985170
endloop
endfacet
facet normal -1.000000 0.000000 0.000000
outer loop
vertex 0.124625 -1.534430 3.985170
vertex 0.124625 -1.605165 3.988364
vertex 0.124625 -1.599974 4.165527
endloop
endfacet
facet normal -1.000000 0.000000 0.000000
outer loop
vertex 0.124625 -1.534430 3.985170
vertex 0.124625 -1.599974 4.165527
vertex 0.124625 -1.567983 4.873666
endloop
endfacet
facet normal 1.000000 0.000000 0.000000
outer loop
vertex 1.206586 -1.598969 5.099495
vertex 1.206586 -1.659194 3.766376
vertex 1.206586 -1.372670 3.753432
endloop
endfacet
facet normal 1.000000 0.000000 0.000000
outer loop
vertex 1.206586 -1.410135 4.848967
vertex 1.206586 -1.393785 5.090226
vertex 1.206586 -1.598969 5.099495
endloop
endfacet
facet normal 1.000000 0.000000 0.000000
outer loop
vertex 1.206586 -1.372670 3.753432
vertex 1.206586 -1.410135 4.848967
vertex 1.206586 -1.598969 5.099495
endloop
endfacet
facet normal 0.000000 -0.998981 0.045127
outer loop
vertex 0.872372 -1.502439 4.693309
vertex 1.121622 -1.502439 4.693309
vertex 1.121622 -1.494442 4.870344
endloop
endfacet
facet normal 0.000000 -0.998981 0.045125
outer loop
vertex 1.121622 -1.494442 4.870344
vertex 0.872372 -1.494442 4.870344
vertex 0.872372 -1.502439 4.693309
endloop
endfacet
facet normal 1.000000 0.000002 0.000000
outer loop
vertex 0.872372 -1.605165 3.988364
vertex 0.872372 -1.534430 3.985170
vertex 0.872372 -1.502439 4.693309
endloop
endfacet
facet normal 1.000000 0.000002 0.000000
outer loop
vertex 0.872372 -1.502439 4.693309
vertex 0.872372 -1.494442 4.870344
vertex 0.872372 -1.567983 4.873666
endloop
endfacet
facet normal 1.000000 0.000000 0.000000
outer loop
vertex 0.872372 -1.502439 4.693309
vertex 0.872372 -1.567983 4.873666
vertex 0.872372 -1.605165 3.988364
endloop
endfacet
facet normal 0.000000 -0.997712 0.067614
outer loop
vertex -0.404395 -1.484036 3.758463
vertex -0.000124 -1.521277 3.208936
vertex 0.404209 -1.484036 3.758463
endloop
endfacet
facet normal -0.000000 -0.002524 -0.999997
outer loop
vertex -1.217947 0.204565 1.664231
vertex 1.217947 0.204566 1.664231
vertex 1.217947 -0.912834 1.667051
endloop
endfacet
facet normal -0.000000 -0.002525 -0.999997
outer loop
vertex 1.217947 -0.912834 1.667051
vertex -1.217947 -0.912835 1.667052
vertex -1.217947 0.204565 1.664231
endloop
endfacet
facet normal -0.001192 -0.998981 0.045130
outer loop
vertex 0.124625 -1.567983 4.873666
vertex 0.124625 -1.599974 4.165527
vertex 0.182100 -1.598451 4.200757
endloop
endfacet
facet normal 0.004487 -0.998949 0.045614
outer loop
vertex 0.124625 -1.567983 4.873666
vertex 0.182100 -1.598451 4.200757
vertex 0.182100 -1.570405 4.814970
endloop
endfacet
facet normal 0.000000 -0.999088 0.042689
outer loop
vertex 0.182100 -1.602656 4.047078
vertex 0.124625 -1.605165 3.988364
vertex 0.872372 -1.605165 3.988364
endloop
endfacet
facet normal -0.000114 -0.999145 0.041353
outer loop
vertex 0.830680 -1.602730 4.047081
vertex 0.182100 -1.602656 4.047078
vertex 0.872372 -1.605165 3.988364
endloop
endfacet
facet normal 0.000000 -0.999150 0.041233
outer loop
vertex 0.872372 -1.567983 4.873666
vertex 0.124625 -1.567983 4.873666
vertex 0.182100 -1.570405 4.814970
endloop
endfacet
facet normal 0.000744 -0.999119 0.041961
outer loop
vertex 0.830680 -1.570480 4.814972
vertex 0.830680 -1.602730 4.047081
vertex 0.872372 -1.605165 3.988364
endloop
endfacet
facet normal -0.000116 -0.999093 0.042581
outer loop
vertex 0.872372 -1.567983 4.873666
vertex 0.182100 -1.570405 4.814970
vertex 0.830680 -1.570480 4.814972
endloop
endfacet
facet normal 0.000764 -0.999119 0.041962
outer loop
vertex 0.872372 -1.605165 3.988364
vertex 0.872372 -1.567983 4.873666
vertex 0.830680 -1.570480 4.814972
endloop
endfacet
facet normal 0.013715 -0.999477 0.029284
outer loop
vertex 0.124625 -1.599974 4.165527
vertex 0.124625 -1.605165 3.988364
vertex 0.182100 -1.602656 4.047078
endloop
endfacet
facet normal 0.009723 -0.999579 0.027351
outer loop
vertex 0.182100 -1.602656 4.047078
vertex 0.182100 -1.598451 4.200757
vertex 0.124625 -1.599974 4.165527
endloop
endfacet
facet normal 0.000000 -0.998981 0.045132
outer loop
vertex -0.373874 -1.617569 4.521113
vertex -0.373874 -1.601573 4.875184
vertex -0.872372 -1.601573 4.875184
endloop
endfacet
facet normal 0.000000 -0.998981 0.045131
outer loop
vertex -0.872372 -1.601573 4.875184
vertex -0.872372 -1.617569 4.521113
vertex -0.373874 -1.617569 4.521113
endloop
endfacet
facet normal 0.000002 0.045129 0.998981
outer loop
vertex 0.182100 -1.602656 4.047078
vertex 0.830680 -1.602730 4.047081
vertex 0.830680 -1.516356 4.043179
endloop
endfacet
facet normal -0.000001 0.045129 0.998981
outer loop
vertex 0.830680 -1.516356 4.043179
vertex 0.182100 -1.516282 4.043176
vertex 0.182100 -1.602656 4.047078
endloop
endfacet
facet normal 0.000000 -0.045110 -0.998982
outer loop
vertex 0.124625 -1.534430 3.985170
vertex 0.872372 -1.534430 3.985170
vertex 0.872372 -1.605165 3.988364
endloop
endfacet
facet normal 0.000000 -0.045110 -0.998982
outer loop
vertex 0.872372 -1.605165 3.988364
vertex 0.124625 -1.605165 3.988364
vertex 0.124625 -1.534430 3.985170
endloop
endfacet
facet normal 0.000000 0.045121 0.998982
outer loop
vertex 0.872372 -1.494442 4.870344
vertex 0.124625 -1.494442 4.870344
vertex 0.124625 -1.567983 4.873666
endloop
endfacet
facet normal 0.000000 0.045121 0.998982
outer loop
vertex 0.124625 -1.567983 4.873666
vertex 0.872372 -1.567983 4.873666
vertex 0.872372 -1.494442 4.870344
endloop
endfacet
facet normal 1.000000 0.000000 0.000000
outer loop
vertex 0.182100 -1.484031 4.811068
vertex 0.182100 -1.570405 4.814970
vertex 0.182100 -1.598451 4.200757
endloop
endfacet
facet normal 1.000000 -0.000000 0.000000
outer loop
vertex 0.182100 -1.598451 4.200757
vertex 0.182100 -1.602656 4.047078
vertex 0.182100 -1.516282 4.043176
endloop
endfacet
facet normal 1.000000 0.000000 0.000000
outer loop
vertex 0.182100 -1.598451 4.200757
vertex 0.182100 -1.516282 4.043176
vertex 0.182100 -1.484031 4.811068
endloop
endfacet
facet normal -0.000114 -0.999119 0.041962
outer loop
vertex 0.830680 -1.516356 4.043179
vertex 0.830680 -1.484105 4.811070
vertex 0.182100 -1.484031 4.811068
endloop
endfacet
facet normal -0.000114 -0.999119 0.041962
outer loop
vertex 0.182100 -1.484031 4.811068
vertex 0.182100 -1.516282 4.043176
vertex 0.830680 -1.516356 4.043179
endloop
endfacet
facet normal 1.000000 0.000000 0.000000
outer loop
vertex -0.373874 -1.510437 4.516273
vertex -0.373874 -1.494442 4.870344
vertex -0.373874 -1.601573 4.875184
endloop
endfacet
facet normal 1.000000 -0.000000 0.000000
outer loop
vertex -0.373874 -1.601573 4.875184
vertex -0.373874 -1.617569 4.521113
vertex -0.373874 -1.510437 4.516273
endloop
endfacet
endsolid Exported from Blender-2.77 (sub 0)
