solid Exported from Blender-2.77 (sub 0)
facet normal 0.159992 -0.987068 0.010004
outer loop
vertex -3.344077 2.507141 1.070397
vertex -2.216389 2.701127 2.175916
vertex -2.228461 2.699187 2.177560
endloop
endfacet
facet normal 0.159975 -0.987070 0.010010
outer loop
vertex -2.228461 2.699187 2.177560
vertex -2.212464 2.701802 2.179765
vertex -2.006624 2.737211 2.381557
endloop
endfacet
facet normal 0.159960 -0.987072 0.010039
outer loop
vertex -2.228461 2.699187 2.177560
vertex -2.006624 2.737211 2.381557
vertex -2.686303 2.626135 2.290059
endloop
endfacet
facet normal 0.159960 -0.987073 0.010035
outer loop
vertex -0.075602 3.069388 4.274618
vertex 1.875079 3.404947 6.186951
vertex -3.589216 2.508566 5.118135
endloop
endfacet
facet normal 0.159960 -0.987072 0.010036
outer loop
vertex -2.902925 2.607246 3.885080
vertex -0.075602 3.069388 4.274618
vertex -3.589216 2.508566 5.118135
endloop
endfacet
facet normal 0.159960 -0.987072 0.010034
outer loop
vertex -3.344077 2.507141 1.070397
vertex -2.228461 2.699187 2.177560
vertex -2.686303 2.626135 2.290059
endloop
endfacet
facet normal 0.157800 -0.987400 0.011861
outer loop
vertex -3.344077 2.507141 1.070397
vertex -2.686303 2.626135 2.290059
vertex -2.686345 2.626130 2.290205
endloop
endfacet
facet normal 0.159959 -0.987073 0.010035
outer loop
vertex -2.902925 2.607246 3.885080
vertex -3.589216 2.508566 5.118135
vertex -3.344077 2.507141 1.070397
endloop
endfacet
facet normal 0.159960 -0.987072 0.010033
outer loop
vertex -0.313032 3.028545 4.041856
vertex -0.109328 3.063586 4.241556
vertex -2.898946 2.607612 3.857623
endloop
endfacet
facet normal 0.159984 -0.987068 0.010034
outer loop
vertex -2.898946 2.607612 3.857623
vertex -2.902925 2.607246 3.885080
vertex -3.344077 2.507141 1.070397
endloop
endfacet
facet normal 0.159978 -0.987070 0.010014
outer loop
vertex -3.344077 2.507141 1.070397
vertex -2.686345 2.626130 2.290205
vertex -2.689587 2.625847 2.314078
endloop
endfacet
facet normal 0.159960 -0.987072 0.010034
outer loop
vertex -2.689587 2.625847 2.314078
vertex -1.975035 2.742645 2.412526
vertex -1.770085 2.777901 2.613446
endloop
endfacet
facet normal 0.159459 -0.987158 0.009629
outer loop
vertex -2.739360 2.619482 2.481355
vertex -2.739361 2.619498 2.482950
vertex -2.742603 2.619215 2.506823
endloop
endfacet
facet normal 0.159960 -0.987072 0.010040
outer loop
vertex -2.689587 2.625847 2.314078
vertex -1.770085 2.777901 2.613446
vertex -2.739360 2.619482 2.481355
endloop
endfacet
facet normal 0.159960 -0.987072 0.010032
outer loop
vertex -2.902607 2.605265 3.685076
vertex -0.313032 3.028545 4.041856
vertex -2.898946 2.607612 3.857623
endloop
endfacet
facet normal 0.159960 -0.987072 0.010036
outer loop
vertex -0.550460 2.987702 3.809095
vertex -0.346613 3.022768 4.008934
vertex -2.899150 2.605546 3.657683
endloop
endfacet
facet normal 0.159977 -0.987070 0.010031
outer loop
vertex -2.902607 2.605265 3.685076
vertex -2.898946 2.607612 3.857623
vertex -3.344077 2.507141 1.070397
endloop
endfacet
facet normal 0.159960 -0.987073 0.010030
outer loop
vertex -2.849590 2.611897 3.492329
vertex -0.550460 2.987702 3.809095
vertex -2.899150 2.605546 3.657683
endloop
endfacet
facet normal 0.159891 -0.987084 0.010045
outer loop
vertex -2.899150 2.605546 3.657683
vertex -2.902607 2.605265 3.685076
vertex -3.344077 2.507141 1.070397
endloop
endfacet
facet normal 0.159958 -0.987073 0.010037
outer loop
vertex -3.344077 2.507141 1.070397
vertex -2.689587 2.625847 2.314078
vertex -2.739360 2.619482 2.481355
endloop
endfacet
facet normal 0.159961 -0.987072 0.010032
outer loop
vertex -2.742603 2.619215 2.506823
vertex -1.737606 2.783488 2.645288
vertex -1.532872 2.818706 2.845997
endloop
endfacet
facet normal 0.159983 -0.987069 0.010022
outer loop
vertex -3.344077 2.507141 1.070397
vertex -2.739360 2.619482 2.481355
vertex -2.742603 2.619215 2.506823
endloop
endfacet
facet normal 0.159968 -0.987071 0.010034
outer loop
vertex -2.849590 2.611897 3.492329
vertex -2.899150 2.605546 3.657683
vertex -3.344077 2.507141 1.070397
endloop
endfacet
facet normal 0.159880 -0.987085 0.010047
outer loop
vertex -2.846349 2.612179 3.468457
vertex -2.849590 2.611897 3.492329
vertex -3.344077 2.507141 1.070397
endloop
endfacet
facet normal 0.159959 -0.987073 0.010038
outer loop
vertex -2.742603 2.619215 2.506823
vertex -1.532872 2.818706 2.845997
vertex -2.738881 2.621580 2.680081
endloop
endfacet
facet normal 0.160181 -0.987037 0.009989
outer loop
vertex -2.845591 2.612268 3.465106
vertex -2.846349 2.612179 3.468457
vertex -3.344077 2.507141 1.070397
endloop
endfacet
facet normal 0.159959 -0.987073 0.010038
outer loop
vertex -0.787890 2.946859 3.576333
vertex -0.583892 2.981951 3.776320
vertex -2.845591 2.612268 3.465106
endloop
endfacet
facet normal 0.158980 -0.987229 0.010243
outer loop
vertex -2.845899 2.610185 3.265156
vertex -2.846031 2.610197 3.268451
vertex -2.849273 2.609915 3.292325
endloop
endfacet
facet normal 0.159960 -0.987073 0.010033
outer loop
vertex -2.849273 2.609915 3.292325
vertex -0.787890 2.946859 3.576333
vertex -2.845591 2.612268 3.465106
endloop
endfacet
facet normal 0.159952 -0.987074 0.010038
outer loop
vertex -3.344077 2.507141 1.070397
vertex -2.742603 2.619215 2.506823
vertex -2.738881 2.621580 2.680081
endloop
endfacet
facet normal 0.159845 -0.987091 0.010002
outer loop
vertex -3.344077 2.507141 1.070397
vertex -2.738881 2.621580 2.680081
vertex -2.739679 2.621480 2.682955
endloop
endfacet
facet normal 0.159962 -0.987072 0.010036
outer loop
vertex -2.849273 2.609915 3.292325
vertex -2.845591 2.612268 3.465106
vertex -3.344077 2.507141 1.070397
endloop
endfacet
facet normal 0.159960 -0.987072 0.010034
outer loop
vertex -1.025318 2.906016 3.343573
vertex -0.821176 2.941133 3.543702
vertex -2.845899 2.610185 3.265156
endloop
endfacet
facet normal 0.159919 -0.987079 0.010059
outer loop
vertex -2.845899 2.610185 3.265156
vertex -2.849273 2.609915 3.292325
vertex -3.344077 2.507141 1.070397
endloop
endfacet
facet normal 0.159994 -0.987067 0.010020
outer loop
vertex -3.344077 2.507141 1.070397
vertex -2.739679 2.621480 2.682955
vertex -2.742921 2.621197 2.706828
endloop
endfacet
facet normal 0.159960 -0.987073 0.010034
outer loop
vertex -2.742921 2.621197 2.706828
vertex -1.500178 2.824330 2.878048
vertex -1.295640 2.859515 3.078565
endloop
endfacet
facet normal 0.162297 -0.986686 0.010470
outer loop
vertex -2.792647 2.614824 2.872630
vertex -2.792696 2.614848 2.875700
vertex -2.795938 2.614565 2.899574
endloop
endfacet
facet normal 0.159960 -0.987073 0.010031
outer loop
vertex -2.742921 2.621197 2.706828
vertex -1.295640 2.859515 3.078565
vertex -2.792647 2.614824 2.872630
endloop
endfacet
facet normal 0.159960 -0.987073 0.010032
outer loop
vertex -2.796256 2.616547 3.099579
vertex -1.025318 2.906016 3.343573
vertex -2.845899 2.610185 3.265156
endloop
endfacet
facet normal 0.159895 -0.987083 0.010073
outer loop
vertex -2.793014 2.616830 3.075706
vertex -2.796256 2.616547 3.099579
vertex -2.845899 2.610185 3.265156
endloop
endfacet
facet normal 0.159963 -0.987072 0.010034
outer loop
vertex -3.344077 2.507141 1.070397
vertex -2.742921 2.621197 2.706828
vertex -2.792647 2.614824 2.872630
endloop
endfacet
facet normal 0.159959 -0.987073 0.010037
outer loop
vertex -2.795938 2.614565 2.899574
vertex -1.262748 2.865173 3.110810
vertex -1.058420 2.900322 3.311121
endloop
endfacet
facet normal 0.159919 -0.987079 0.010058
outer loop
vertex -3.344077 2.507141 1.070397
vertex -2.792647 2.614824 2.872630
vertex -2.795938 2.614565 2.899574
endloop
endfacet
facet normal 0.159966 -0.987071 0.010033
outer loop
vertex -2.793014 2.616830 3.075706
vertex -2.845899 2.610185 3.265156
vertex -3.344077 2.507141 1.070397
endloop
endfacet
facet normal 0.159960 -0.987073 0.010037
outer loop
vertex -2.795938 2.614565 2.899574
vertex -1.058420 2.900322 3.311121
vertex -2.792236 2.616924 3.072594
endloop
endfacet
facet normal 0.159708 -0.987112 0.010136
outer loop
vertex -2.792236 2.616924 3.072594
vertex -2.793014 2.616830 3.075706
vertex -3.344077 2.507141 1.070397
endloop
endfacet
facet normal 0.159960 -0.987073 0.010033
outer loop
vertex -3.344077 2.507141 1.070397
vertex -2.795938 2.614565 2.899574
vertex -2.792236 2.616924 3.072594
endloop
endfacet
facet normal 0.160616 -0.986973 0.009348
outer loop
vertex 1.875079 3.404947 6.186951
vertex -0.075602 3.069388 4.274618
vertex 1.156984 3.271583 4.444455
endloop
endfacet
facet normal 0.160617 -0.986973 0.009349
outer loop
vertex 1.160912 3.271957 4.416382
vertex -0.109328 3.063586 4.241556
vertex -0.313032 3.028545 4.041856
endloop
endfacet
facet normal 0.160663 -0.986965 0.009340
outer loop
vertex 1.875079 3.404947 6.186951
vertex 1.156984 3.271583 4.444455
vertex 1.160912 3.271957 4.416382
endloop
endfacet
facet normal 0.160617 -0.986973 0.009348
outer loop
vertex -2.216389 2.701127 2.175916
vertex -3.344077 2.507141 1.070397
vertex 2.209449 3.407146 0.673680
endloop
endfacet
facet normal 0.160604 -0.986975 0.009313
outer loop
vertex -2.149963 2.711824 2.164057
vertex -2.216389 2.701127 2.175916
vertex 2.209449 3.407146 0.673680
endloop
endfacet
facet normal 0.160616 -0.986973 0.009348
outer loop
vertex 2.209449 3.407146 0.673680
vertex 1.875079 3.404947 6.186951
vertex 1.160912 3.271957 4.416382
endloop
endfacet
facet normal 0.160616 -0.986973 0.009351
outer loop
vertex 1.160912 3.271957 4.416382
vertex -0.313032 3.028545 4.041856
vertex 1.157280 3.269737 4.244450
endloop
endfacet
facet normal 0.160617 -0.986973 0.009346
outer loop
vertex 1.160949 3.270069 4.216394
vertex -0.346613 3.022768 4.008934
vertex -0.550460 2.987702 3.809095
endloop
endfacet
facet normal 0.160810 -0.986941 0.009351
outer loop
vertex 1.160912 3.271957 4.416382
vertex 1.157280 3.269737 4.244450
vertex 1.160949 3.270069 4.216394
endloop
endfacet
facet normal 0.160617 -0.986973 0.009347
outer loop
vertex 1.373876 3.289846 2.646015
vertex -2.149963 2.711824 2.164057
vertex 2.209449 3.407146 0.673680
endloop
endfacet
facet normal 0.160617 -0.986973 0.009352
outer loop
vertex -2.006624 2.737211 2.381557
vertex -2.212464 2.701802 2.179765
vertex 1.370425 3.289545 2.673448
endloop
endfacet
facet normal 0.160698 -0.986959 0.009374
outer loop
vertex 1.370425 3.289545 2.673448
vertex 1.373876 3.289846 2.646015
vertex 2.209449 3.407146 0.673680
endloop
endfacet
facet normal 0.160616 -0.986973 0.009352
outer loop
vertex 1.160949 3.270069 4.216394
vertex -0.550460 2.987702 3.809095
vertex 1.210270 3.276535 4.051704
endloop
endfacet
facet normal 0.160616 -0.986973 0.009349
outer loop
vertex 1.214206 3.276911 4.023770
vertex -0.583892 2.981951 3.776320
vertex -0.787890 2.946859 3.576333
endloop
endfacet
facet normal 0.160603 -0.986975 0.009346
outer loop
vertex 1.160912 3.271957 4.416382
vertex 1.160949 3.270069 4.216394
vertex 1.210270 3.276535 4.051704
endloop
endfacet
facet normal 0.160617 -0.986973 0.009345
outer loop
vertex 1.214206 3.276911 4.023770
vertex -0.787890 2.946859 3.576333
vertex 1.210566 3.274689 3.851699
endloop
endfacet
facet normal 0.161072 -0.986897 0.009452
outer loop
vertex 1.160912 3.271957 4.416382
vertex 1.210270 3.276535 4.051704
vertex 1.214206 3.276911 4.023770
endloop
endfacet
facet normal 0.160617 -0.986973 0.009344
outer loop
vertex 1.374087 3.291775 2.845993
vertex -2.006624 2.737211 2.381557
vertex 1.370425 3.289545 2.673448
endloop
endfacet
facet normal 0.160616 -0.986973 0.009350
outer loop
vertex -1.770085 2.777901 2.613446
vertex -1.975035 2.742645 2.412526
vertex 1.370129 3.291391 2.873456
endloop
endfacet
facet normal 0.160617 -0.986973 0.009351
outer loop
vertex 1.374087 3.291775 2.845993
vertex 1.370425 3.289545 2.673448
vertex 2.209449 3.407146 0.673680
endloop
endfacet
facet normal 0.160617 -0.986973 0.009345
outer loop
vertex 1.320652 3.284903 3.038593
vertex -1.770085 2.777901 2.613446
vertex 1.370129 3.291391 2.873456
endloop
endfacet
facet normal 0.160607 -0.986974 0.009319
outer loop
vertex 1.370129 3.291391 2.873456
vertex 1.374087 3.291775 2.845993
vertex 2.209449 3.407146 0.673680
endloop
endfacet
facet normal 0.160626 -0.986971 0.009351
outer loop
vertex 2.209449 3.407146 0.673680
vertex 1.160912 3.271957 4.416382
vertex 1.214206 3.276911 4.023770
endloop
endfacet
facet normal 0.160547 -0.986984 0.009348
outer loop
vertex 1.214206 3.276911 4.023770
vertex 1.210566 3.274689 3.851699
vertex 1.214183 3.275013 3.823794
endloop
endfacet
facet normal 0.160616 -0.986973 0.009347
outer loop
vertex 1.214183 3.275013 3.823794
vertex -0.821176 2.941133 3.543702
vertex -1.025318 2.906016 3.343573
endloop
endfacet
facet normal 0.160618 -0.986973 0.009344
outer loop
vertex 1.214183 3.275013 3.823794
vertex -1.025318 2.906016 3.343573
vertex 1.263556 3.281487 3.658956
endloop
endfacet
facet normal 0.160618 -0.986972 0.009347
outer loop
vertex 2.209449 3.407146 0.673680
vertex 1.214206 3.276911 4.023770
vertex 1.214183 3.275013 3.823794
endloop
endfacet
facet normal 0.160585 -0.986978 0.009345
outer loop
vertex 1.320652 3.284903 3.038593
vertex 1.370129 3.291391 2.873456
vertex 2.209449 3.407146 0.673680
endloop
endfacet
facet normal 0.160617 -0.986973 0.009342
outer loop
vertex -1.532872 2.818706 2.845997
vertex -1.737606 2.783488 2.645288
vertex 1.317139 3.284593 3.066199
endloop
endfacet
facet normal 0.160662 -0.986965 0.009367
outer loop
vertex 1.317139 3.284593 3.066199
vertex 1.320652 3.284903 3.038593
vertex 2.209449 3.407146 0.673680
endloop
endfacet
facet normal 0.160507 -0.986991 0.009322
outer loop
vertex 2.209449 3.407146 0.673680
vertex 1.214183 3.275013 3.823794
vertex 1.263556 3.281487 3.658956
endloop
endfacet
facet normal 0.160616 -0.986973 0.009353
outer loop
vertex 1.267500 3.281865 3.631178
vertex -1.058420 2.900322 3.311121
vertex -1.262748 2.865173 3.110810
endloop
endfacet
facet normal 0.160788 -0.986944 0.009440
outer loop
vertex 2.209449 3.407146 0.673680
vertex 1.263556 3.281487 3.658956
vertex 1.267500 3.281865 3.631178
endloop
endfacet
facet normal 0.160617 -0.986973 0.009349
outer loop
vertex 1.320793 3.286820 3.238585
vertex -1.532872 2.818706 2.845997
vertex 1.317139 3.284593 3.066199
endloop
endfacet
facet normal 0.160617 -0.986973 0.009346
outer loop
vertex 1.267500 3.281865 3.631178
vertex -1.262748 2.865173 3.110810
vertex 1.263853 3.279641 3.458949
endloop
endfacet
facet normal 0.160617 -0.986973 0.009353
outer loop
vertex 1.267417 3.279958 3.431193
vertex -1.295640 2.859515 3.078565
vertex -1.500178 2.824330 2.878048
endloop
endfacet
facet normal 0.160523 -0.986988 0.009343
outer loop
vertex 1.267500 3.281865 3.631178
vertex 1.263853 3.279641 3.458949
vertex 1.267417 3.279958 3.431193
endloop
endfacet
facet normal 0.160613 -0.986973 0.009345
outer loop
vertex 1.320793 3.286820 3.238585
vertex 1.317139 3.284593 3.066199
vertex 2.209449 3.407146 0.673680
endloop
endfacet
facet normal 0.160617 -0.986973 0.009343
outer loop
vertex 1.267417 3.279958 3.431193
vertex -1.500178 2.824330 2.878048
vertex 1.316842 3.286439 3.266205
endloop
endfacet
facet normal 0.160689 -0.986961 0.009373
outer loop
vertex 1.316842 3.286439 3.266205
vertex 1.320793 3.286820 3.238585
vertex 2.209449 3.407146 0.673680
endloop
endfacet
facet normal 0.160610 -0.986974 0.009343
outer loop
vertex 2.209449 3.407146 0.673680
vertex 1.267500 3.281865 3.631178
vertex 1.267417 3.279958 3.431193
endloop
endfacet
facet normal 0.160547 -0.986984 0.009322
outer loop
vertex 1.267417 3.279958 3.431193
vertex 1.316842 3.286439 3.266205
vertex 2.209449 3.407146 0.673680
endloop
endfacet
facet normal 0.000490 -0.001282 -0.999999
outer loop
vertex 1.638183 -2.644775 0.157095
vertex -2.756074 -1.941586 0.154040
vertex -2.755843 1.993065 0.148996
endloop
endfacet
facet normal 0.001112 -0.000693 -0.999999
outer loop
vertex -2.755843 1.993065 0.148996
vertex 1.642571 2.694429 0.153401
vertex 1.638183 -2.644775 0.157095
endloop
endfacet
facet normal -0.156442 -0.978202 -0.136556
outer loop
vertex -2.756074 -1.941586 0.154040
vertex 1.638183 -2.644775 0.157095
vertex 1.661301 -2.701312 0.535604
endloop
endfacet
facet normal -0.164254 -0.984654 -0.058962
outer loop
vertex 1.661301 -2.701312 0.535604
vertex -2.753412 -1.992095 0.990119
vertex -2.756074 -1.941586 0.154040
endloop
endfacet
facet normal -0.999973 0.000068 0.007376
outer loop
vertex -2.749659 1.974468 0.987585
vertex -2.755843 1.993065 0.148996
vertex -2.756074 -1.941586 0.154040
endloop
endfacet
facet normal -0.999994 0.000948 0.003241
outer loop
vertex -2.756074 -1.941586 0.154040
vertex -2.753412 -1.992095 0.990119
vertex -2.749659 1.974468 0.987585
endloop
endfacet
facet normal 0.998151 0.001309 -0.060768
outer loop
vertex 1.653988 2.682707 0.531482
vertex 1.661301 -2.701312 0.535604
vertex 1.638183 -2.644775 0.157095
endloop
endfacet
facet normal 0.999543 -0.000842 -0.030210
outer loop
vertex 1.638183 -2.644775 0.157095
vertex 1.642571 2.694429 0.153401
vertex 1.653988 2.682707 0.531482
endloop
endfacet
facet normal -0.156420 0.987422 0.023050
outer loop
vertex -2.755843 1.993065 0.148996
vertex -2.749659 1.974468 0.987585
vertex 1.653988 2.682707 0.531482
endloop
endfacet
facet normal -0.157405 0.986901 0.035352
outer loop
vertex 1.653988 2.682707 0.531482
vertex 1.642571 2.694429 0.153401
vertex -2.755843 1.993065 0.148996
endloop
endfacet
facet normal 0.473026 -0.000032 -0.881049
outer loop
vertex 2.012759 -3.136616 0.724314
vertex 1.661301 -2.701312 0.535604
vertex 1.653988 2.682707 0.531482
endloop
endfacet
facet normal 0.473279 -0.000012 -0.880913
outer loop
vertex 1.653988 2.682707 0.531482
vertex 2.012945 3.133528 0.724329
vertex 2.012759 -3.136616 0.724314
endloop
endfacet
facet normal -0.143758 -0.288123 -0.946741
outer loop
vertex -3.136275 -2.320431 1.148178
vertex -2.753412 -1.992095 0.990119
vertex 1.661301 -2.701312 0.535604
endloop
endfacet
facet normal -0.148589 -0.491876 -0.857892
outer loop
vertex 1.661301 -2.701312 0.535604
vertex 2.012759 -3.136616 0.724314
vertex -3.136275 -2.320431 1.148178
endloop
endfacet
facet normal -0.143645 0.282310 -0.948508
outer loop
vertex 1.653988 2.682707 0.531482
vertex -2.749659 1.974468 0.987585
vertex -3.136509 2.317269 1.148200
endloop
endfacet
facet normal -0.147962 0.486215 -0.861221
outer loop
vertex -3.136509 2.317269 1.148200
vertex 2.012945 3.133528 0.724329
vertex 1.653988 2.682707 0.531482
endloop
endfacet
facet normal -0.381427 -0.000230 -0.924399
outer loop
vertex -2.749659 1.974468 0.987585
vertex -2.753412 -1.992095 0.990119
vertex -3.136275 -2.320431 1.148178
endloop
endfacet
facet normal -0.383462 -0.000015 -0.923557
outer loop
vertex -3.136275 -2.320431 1.148178
vertex -3.136509 2.317269 1.148200
vertex -2.749659 1.974468 0.987585
endloop
endfacet
facet normal -0.011044 0.405096 -0.914207
outer loop
vertex -3.344153 -2.501524 1.070445
vertex -3.136275 -2.320431 1.148178
vertex 2.012759 -3.136616 0.724314
endloop
endfacet
facet normal -0.045391 0.154992 -0.986872
outer loop
vertex 2.012759 -3.136616 0.724314
vertex 2.209381 -3.401605 0.673653
vertex -3.344153 -2.501524 1.070445
endloop
endfacet
facet normal -0.249495 0.000010 -0.968376
outer loop
vertex 2.209381 -3.401605 0.673653
vertex 2.012759 -3.136616 0.724314
vertex 2.012945 3.133528 0.724329
endloop
endfacet
facet normal -0.249601 0.000006 -0.968349
outer loop
vertex 2.012945 3.133528 0.724329
vertex 2.209449 3.407146 0.673680
vertex 2.209381 -3.401605 0.673653
endloop
endfacet
facet normal 0.350232 0.000022 -0.936663
outer loop
vertex -3.136509 2.317269 1.148200
vertex -3.136275 -2.320431 1.148178
vertex -3.344153 -2.501524 1.070445
endloop
endfacet
facet normal 0.350974 -0.000014 -0.936385
outer loop
vertex -3.344153 -2.501524 1.070445
vertex -3.344077 2.507141 1.070397
vertex -3.136509 2.317269 1.148200
endloop
endfacet
facet normal -0.013611 -0.391838 -0.919934
outer loop
vertex 2.012945 3.133528 0.724329
vertex -3.136509 2.317269 1.148200
vertex -3.344077 2.507141 1.070397
endloop
endfacet
facet normal -0.046316 -0.149563 -0.987667
outer loop
vertex -3.344077 2.507141 1.070397
vertex 2.209449 3.407146 0.673680
vertex 2.012945 3.133528 0.724329
endloop
endfacet
facet normal -0.998171 0.000000 -0.060451
outer loop
vertex -3.589216 -2.502981 5.118135
vertex -3.589216 2.508566 5.118135
vertex -3.344077 2.507141 1.070397
endloop
endfacet
facet normal -0.998172 0.000014 -0.060433
outer loop
vertex -3.344077 2.507141 1.070397
vertex -3.344153 -2.501524 1.070445
vertex -3.589216 -2.502981 5.118135
endloop
endfacet
facet normal 0.963255 0.262184 0.058301
outer loop
vertex 1.875079 -3.399364 6.186950
vertex 2.209381 -3.401605 0.673653
vertex 1.922459 -2.501500 1.366373
endloop
endfacet
facet normal 0.962233 0.265767 0.058958
outer loop
vertex 1.922459 -2.501500 1.366373
vertex 1.671498 -2.502257 5.465607
vertex 1.875079 -3.399364 6.186950
endloop
endfacet
facet normal -0.191962 0.000000 0.981402
outer loop
vertex 1.875079 3.404947 6.186951
vertex -3.589216 2.508566 5.118135
vertex -3.589216 -2.502981 5.118135
endloop
endfacet
facet normal -0.191962 -0.000000 0.981402
outer loop
vertex -3.589216 -2.502981 5.118135
vertex 1.875079 -3.399364 6.186950
vertex 1.875079 3.404947 6.186951
endloop
endfacet
facet normal -0.255156 -0.966771 -0.015799
outer loop
vertex 1.671498 -2.502257 5.465607
vertex 1.922459 -2.501500 1.366373
vertex 1.936984 -2.504998 1.345841
endloop
endfacet
facet normal -0.184363 -0.982794 -0.011228
outer loop
vertex 1.936984 -2.504998 1.345841
vertex 1.684621 -2.504998 5.490061
vertex 1.671498 -2.502257 5.465607
endloop
endfacet
facet normal 0.962406 0.000000 -0.271615
outer loop
vertex 1.875079 3.404947 6.186951
vertex 1.875079 -3.399364 6.186950
vertex 1.671498 -2.502257 5.465607
endloop
endfacet
facet normal 0.963620 -0.000572 -0.267275
outer loop
vertex 1.671498 -2.502257 5.465607
vertex 1.678206 2.511119 5.479066
vertex 1.875079 3.404947 6.186951
endloop
endfacet
facet normal -0.881137 -0.000090 0.472861
outer loop
vertex 1.678206 2.511119 5.479066
vertex 1.671498 -2.502257 5.465607
vertex 1.684621 -2.504998 5.490061
endloop
endfacet
facet normal -0.367071 0.001569 0.930192
outer loop
vertex 1.684621 -2.504998 5.490061
vertex 1.710190 2.546448 5.491628
vertex 1.678206 2.511119 5.479066
endloop
endfacet
facet normal 0.981573 -0.181495 0.059773
outer loop
vertex 1.684621 -2.504998 5.490061
vertex 1.936984 -2.504998 1.345841
vertex 1.946039 -2.431099 1.421532
endloop
endfacet
facet normal 0.985334 -0.159585 0.060413
outer loop
vertex 1.946039 -2.431099 1.421532
vertex 1.701134 -2.431100 5.415937
vertex 1.684621 -2.504998 5.490061
endloop
endfacet
facet normal 0.964217 -0.258608 0.058375
outer loop
vertex 2.209449 3.407146 0.673680
vertex 1.875079 3.404947 6.186951
vertex 1.678206 2.511119 5.479066
endloop
endfacet
facet normal 0.965056 -0.255298 0.059085
outer loop
vertex 1.678206 2.511119 5.479066
vertex 1.930514 2.510190 1.354006
vertex 2.209449 3.407146 0.673680
endloop
endfacet
facet normal -0.732579 0.679196 -0.044961
outer loop
vertex 1.930514 2.510190 1.354006
vertex 1.678206 2.511119 5.479066
vertex 1.710190 2.546448 5.491628
endloop
endfacet
facet normal -0.752715 0.656749 -0.045837
outer loop
vertex 1.710190 2.546448 5.491628
vertex 1.962552 2.546449 1.347409
vertex 1.930514 2.510190 1.354006
endloop
endfacet
facet normal 0.977108 -0.005012 0.212683
outer loop
vertex 1.710190 2.546448 5.491628
vertex 1.684621 -2.504998 5.490061
vertex 1.701134 -2.431100 5.415937
endloop
endfacet
facet normal 0.992919 0.000000 -0.118797
outer loop
vertex 1.701134 -2.431100 5.415937
vertex 1.701134 2.472550 5.415937
vertex 1.710190 2.546448 5.491628
endloop
endfacet
facet normal 0.981571 -0.181511 0.059773
outer loop
vertex 1.962552 2.546449 1.347409
vertex 1.710190 2.546448 5.491628
vertex 1.701134 2.472550 5.415937
endloop
endfacet
facet normal 0.985335 -0.159577 0.060413
outer loop
vertex 1.701134 2.472550 5.415937
vertex 1.946039 2.472550 1.421532
vertex 1.962552 2.546449 1.347409
endloop
endfacet
facet normal -0.925256 0.000011 -0.379343
outer loop
vertex 1.930514 2.510190 1.354006
vertex 2.209449 3.407146 0.673680
vertex 2.209381 -3.401605 0.673653
endloop
endfacet
facet normal -0.923637 0.000539 -0.383267
outer loop
vertex 2.209381 -3.401605 0.673653
vertex 1.922459 -2.501500 1.366373
vertex 1.930514 2.510190 1.354006
endloop
endfacet
facet normal 0.816383 0.000113 0.577511
outer loop
vertex 1.930514 2.510190 1.354006
vertex 1.922459 -2.501500 1.366373
vertex 1.936984 -2.504998 1.345841
endloop
endfacet
facet normal 0.203134 -0.001332 0.979150
outer loop
vertex 1.936984 -2.504998 1.345841
vertex 1.962552 2.546449 1.347409
vertex 1.930514 2.510190 1.354006
endloop
endfacet
facet normal -0.977109 0.005012 -0.212681
outer loop
vertex 1.946039 2.472550 1.421532
vertex 1.962552 2.546449 1.347409
vertex 1.936984 -2.504998 1.345841
endloop
endfacet
facet normal -0.992920 0.000000 0.118786
outer loop
vertex 1.936984 -2.504998 1.345841
vertex 1.946039 -2.431099 1.421532
vertex 1.946039 2.472550 1.421532
endloop
endfacet
facet normal -0.049722 0.000000 0.998763
outer loop
vertex 2.049386 -2.449032 1.426677
vertex 2.049386 2.454617 1.426677
vertex 1.946039 2.472550 1.421532
endloop
endfacet
facet normal -0.049723 0.000000 0.998763
outer loop
vertex 1.946039 2.472550 1.421532
vertex 1.946039 -2.431099 1.421532
vertex 2.049386 -2.449032 1.426677
endloop
endfacet
facet normal 0.170452 0.985310 0.010451
outer loop
vertex 1.804481 -2.449032 5.421082
vertex 2.049386 -2.449032 1.426677
vertex 1.946039 -2.431099 1.421532
endloop
endfacet
facet normal 0.170444 0.985312 0.010450
outer loop
vertex 1.946039 -2.431099 1.421532
vertex 1.701134 -2.431100 5.415937
vertex 1.804481 -2.449032 5.421082
endloop
endfacet
facet normal 0.957754 0.000000 0.287590
outer loop
vertex 2.300046 -3.488772 0.591911
vertex 2.300046 3.494359 0.591911
vertex 2.049386 2.454617 1.426677
endloop
endfacet
facet normal 0.957753 0.000000 0.287590
outer loop
vertex 2.049386 2.454617 1.426677
vertex 2.049386 -2.449032 1.426677
vertex 2.300046 -3.488772 0.591911
endloop
endfacet
facet normal -0.170455 -0.985310 -0.010451
outer loop
vertex 2.049386 2.454617 1.426677
vertex 1.804481 2.454617 5.421082
vertex 1.701134 2.472550 5.415937
endloop
endfacet
facet normal -0.170455 -0.985310 -0.010450
outer loop
vertex 1.701134 2.472550 5.415937
vertex 1.946039 2.472550 1.421532
vertex 2.049386 2.454617 1.426677
endloop
endfacet
facet normal 0.049716 0.000000 -0.998763
outer loop
vertex 1.804481 2.454617 5.421082
vertex 1.804481 -2.449032 5.421082
vertex 1.701134 -2.431100 5.415937
endloop
endfacet
facet normal 0.049706 0.000000 -0.998764
outer loop
vertex 1.701134 -2.431100 5.415937
vertex 1.701134 2.472550 5.415937
vertex 1.804481 2.454617 5.421082
endloop
endfacet
facet normal 0.980313 0.188077 0.060105
outer loop
vertex 2.049386 -2.449032 1.426677
vertex 1.804481 -2.449032 5.421082
vertex 1.951284 -3.488774 6.280216
endloop
endfacet
facet normal 0.980313 0.188078 0.060105
outer loop
vertex 1.951284 -3.488774 6.280216
vertex 2.300046 -3.488772 0.591911
vertex 2.049386 -2.449032 1.426677
endloop
endfacet
facet normal 0.061201 0.000000 -0.998126
outer loop
vertex 2.300046 3.494359 0.591911
vertex 2.300046 -3.488772 0.591911
vertex 2.017493 -3.144312 0.574586
endloop
endfacet
facet normal 0.061197 0.000000 -0.998126
outer loop
vertex 2.017493 -3.144312 0.574586
vertex 2.017492 3.141062 0.574587
vertex 2.300046 3.494359 0.591911
endloop
endfacet
facet normal 0.980313 -0.188077 0.060105
outer loop
vertex 2.300046 3.494359 0.591911
vertex 1.951284 3.494357 6.280217
vertex 1.804481 2.454617 5.421082
endloop
endfacet
facet normal 0.980313 -0.188077 0.060105
outer loop
vertex 1.804481 2.454617 5.421082
vertex 2.049386 2.454617 1.426677
vertex 2.300046 3.494359 0.591911
endloop
endfacet
facet normal 0.985713 0.000000 -0.168432
outer loop
vertex 1.951284 3.494357 6.280217
vertex 1.951284 -3.488774 6.280216
vertex 1.804481 -2.449032 5.421082
endloop
endfacet
facet normal 0.985713 0.000000 -0.168432
outer loop
vertex 1.804481 -2.449032 5.421082
vertex 1.804481 2.454617 5.421082
vertex 1.951284 3.494357 6.280217
endloop
endfacet
facet normal -0.085699 0.117055 -0.989421
outer loop
vertex -3.433519 2.588164 0.981315
vertex 2.300046 3.494359 0.591911
vertex 2.017492 3.141062 0.574587
endloop
endfacet
facet normal -0.060462 -0.131767 -0.989435
outer loop
vertex 2.017492 3.141062 0.574587
vertex -3.147694 2.325416 0.998840
vertex -3.433519 2.588164 0.981315
endloop
endfacet
facet normal -0.086205 -0.120453 -0.988969
outer loop
vertex 2.017493 -3.144312 0.574586
vertex 2.300046 -3.488772 0.591911
vertex -3.433519 -2.582578 0.981316
endloop
endfacet
facet normal -0.059819 0.135591 -0.988957
outer loop
vertex -3.433519 -2.582578 0.981316
vertex -3.147694 -2.328665 0.998840
vertex 2.017493 -3.144312 0.574586
endloop
endfacet
facet normal 0.467326 0.000000 -0.884085
outer loop
vertex 2.017492 3.141062 0.574587
vertex 2.017493 -3.144312 0.574586
vertex 1.716769 -2.772221 0.415624
endloop
endfacet
facet normal 0.467329 0.000000 -0.884083
outer loop
vertex 1.716769 -2.772221 0.415624
vertex 1.716769 2.754369 0.415624
vertex 2.017492 3.141062 0.574587
endloop
endfacet
facet normal -0.156743 0.987593 -0.009610
outer loop
vertex 2.300046 3.494359 0.591911
vertex -3.433519 2.588164 0.981315
vertex -2.247501 2.787755 2.148412
endloop
endfacet
facet normal -0.156743 0.987593 -0.009610
outer loop
vertex 2.300046 3.494359 0.591911
vertex -2.247501 2.787755 2.148412
vertex 1.362041 3.365468 2.645416
endloop
endfacet
facet normal -0.156743 0.987593 -0.009610
outer loop
vertex 1.144647 3.348473 4.444677
vertex -0.086242 3.151467 4.275194
vertex 1.951284 3.494357 6.280217
endloop
endfacet
facet normal -0.156741 0.987593 -0.009616
outer loop
vertex -0.322606 3.111690 4.042601
vertex -0.119446 3.145880 4.242519
vertex 1.148604 3.348833 4.417126
endloop
endfacet
facet normal -0.156747 0.987592 -0.009598
outer loop
vertex 1.148604 3.348833 4.417126
vertex 1.144647 3.348473 4.444677
vertex 1.951284 3.494357 6.280217
endloop
endfacet
facet normal -0.156743 0.987593 -0.009610
outer loop
vertex 1.951284 3.494357 6.280217
vertex 2.300046 3.494359 0.591911
vertex 1.362041 3.365468 2.645416
endloop
endfacet
facet normal -0.156743 0.987593 -0.009608
outer loop
vertex 1.358294 3.365148 2.673669
vertex -2.213515 2.793475 2.181857
vertex -2.011075 2.827542 2.381067
endloop
endfacet
facet normal -0.156763 0.987590 -0.009597
outer loop
vertex 1.951284 3.494357 6.280217
vertex 1.362041 3.365468 2.645416
vertex 1.358294 3.365148 2.673669
endloop
endfacet
facet normal -0.156743 0.987593 -0.009611
outer loop
vertex 1.144951 3.346575 4.244673
vertex -0.322606 3.111690 4.042601
vertex 1.148604 3.348833 4.417126
endloop
endfacet
facet normal -0.156743 0.987593 -0.009605
outer loop
vertex 1.358294 3.365148 2.673669
vertex -2.011075 2.827542 2.381067
vertex 1.361913 3.367394 2.845506
endloop
endfacet
facet normal -0.156743 0.987593 -0.009611
outer loop
vertex 1.357990 3.367046 2.873675
vertex -1.977151 2.833252 2.414450
vertex -1.774645 2.867331 2.613726
endloop
endfacet
facet normal -0.156754 0.987591 -0.009608
outer loop
vertex 1.951284 3.494357 6.280217
vertex 1.358294 3.365148 2.673669
vertex 1.361913 3.367394 2.845506
endloop
endfacet
facet normal -0.156742 0.987593 -0.009607
outer loop
vertex 1.357990 3.367046 2.873675
vertex -1.774645 2.867331 2.613726
vertex 1.308666 3.360819 3.038272
endloop
endfacet
facet normal -0.156694 0.987600 -0.009626
outer loop
vertex 1.951284 3.494357 6.280217
vertex 1.361913 3.367394 2.845506
vertex 1.357990 3.367046 2.873675
endloop
endfacet
facet normal -0.156739 0.987593 -0.009610
outer loop
vertex 1.144951 3.346575 4.244673
vertex 1.148604 3.348833 4.417126
vertex 1.951284 3.494357 6.280217
endloop
endfacet
facet normal -0.156742 0.987593 -0.009617
outer loop
vertex -0.558969 3.071913 3.810009
vertex -0.355913 3.106085 4.009825
vertex 1.148501 3.346869 4.216968
endloop
endfacet
facet normal -0.156770 0.987588 -0.009604
outer loop
vertex 1.148501 3.346869 4.216968
vertex 1.144951 3.346575 4.244673
vertex 1.951284 3.494357 6.280217
endloop
endfacet
facet normal -0.156748 0.987592 -0.009610
outer loop
vertex 1.951284 3.494357 6.280217
vertex 1.357990 3.367046 2.873675
vertex 1.308666 3.360819 3.038272
endloop
endfacet
facet normal -0.156743 0.987593 -0.009605
outer loop
vertex 1.304959 3.360505 3.066420
vertex -1.740787 2.873029 2.647043
vertex -1.538217 2.907118 2.846381
endloop
endfacet
facet normal -0.156696 0.987600 -0.009616
outer loop
vertex 1.951284 3.494357 6.280217
vertex 1.308666 3.360819 3.038272
vertex 1.304959 3.360505 3.066420
endloop
endfacet
facet normal -0.156742 0.987593 -0.009608
outer loop
vertex 1.197982 3.353116 4.051928
vertex -0.558969 3.071913 3.810009
vertex 1.148501 3.346869 4.216968
endloop
endfacet
facet normal -0.156743 0.987593 -0.009614
outer loop
vertex 1.304959 3.360505 3.066420
vertex -1.538217 2.907118 2.846381
vertex 1.308587 3.362754 3.238369
endloop
endfacet
facet normal -0.156743 0.987593 -0.009616
outer loop
vertex 1.304654 3.362403 3.266426
vertex -1.504424 2.912805 2.879636
vertex -1.301768 2.946910 3.079059
endloop
endfacet
facet normal -0.156742 0.987593 -0.009610
outer loop
vertex 1.951284 3.494357 6.280217
vertex 1.304959 3.360505 3.066420
vertex 1.308587 3.362754 3.238369
endloop
endfacet
facet normal -0.156742 0.987593 -0.009604
outer loop
vertex 1.304654 3.362403 3.266426
vertex -1.301768 2.946910 3.079059
vertex 1.255287 3.356170 3.431140
endloop
endfacet
facet normal -0.156723 0.987596 -0.009622
outer loop
vertex 1.951284 3.494357 6.280217
vertex 1.308587 3.362754 3.238369
vertex 1.304654 3.362403 3.266426
endloop
endfacet
facet normal -0.156739 0.987593 -0.009610
outer loop
vertex 1.197982 3.353116 4.051928
vertex 1.148501 3.346869 4.216968
vertex 1.951284 3.494357 6.280217
endloop
endfacet
facet normal -0.156744 0.987593 -0.009607
outer loop
vertex -0.795333 3.032136 3.577415
vertex -0.592376 3.066291 3.777134
vertex 1.201932 3.353473 4.024203
endloop
endfacet
facet normal -0.156744 0.987593 -0.009613
outer loop
vertex 1.201932 3.353473 4.024203
vertex 1.197982 3.353116 4.051928
vertex 1.951284 3.494357 6.280217
endloop
endfacet
facet normal -0.156749 0.987592 -0.009608
outer loop
vertex 1.951284 3.494357 6.280217
vertex 1.304654 3.362403 3.266426
vertex 1.255287 3.356170 3.431140
endloop
endfacet
facet normal -0.156742 0.987593 -0.009613
outer loop
vertex 1.251623 3.355862 3.459171
vertex -1.268060 2.952582 3.112229
vertex -1.065306 2.986704 3.311749
endloop
endfacet
facet normal -0.156680 0.987602 -0.009630
outer loop
vertex 1.951284 3.494357 6.280217
vertex 1.255287 3.356170 3.431140
vertex 1.251623 3.355862 3.459171
endloop
endfacet
facet normal -0.156742 0.987593 -0.009609
outer loop
vertex 1.198287 3.351218 3.851922
vertex -0.795333 3.032136 3.577415
vertex 1.201932 3.353473 4.024203
endloop
endfacet
facet normal -0.156743 0.987593 -0.009612
outer loop
vertex 1.251623 3.355862 3.459171
vertex -1.065306 2.986704 3.311749
vertex 1.255260 3.358114 3.631281
endloop
endfacet
facet normal -0.156743 0.987593 -0.009608
outer loop
vertex 1.251318 3.357759 3.659177
vertex -1.031696 2.992360 3.344822
vertex -0.828841 3.026497 3.544441
endloop
endfacet
facet normal -0.156746 0.987592 -0.009607
outer loop
vertex 1.951284 3.494357 6.280217
vertex 1.251623 3.355862 3.459171
vertex 1.255260 3.358114 3.631281
endloop
endfacet
facet normal -0.156743 0.987593 -0.009617
outer loop
vertex 1.251318 3.357759 3.659177
vertex -0.828841 3.026497 3.544441
vertex 1.201894 3.351520 3.824054
endloop
endfacet
facet normal -0.156791 0.987585 -0.009587
outer loop
vertex 1.951284 3.494357 6.280217
vertex 1.255260 3.358114 3.631281
vertex 1.251318 3.357759 3.659177
endloop
endfacet
facet normal -0.156742 0.987593 -0.009611
outer loop
vertex 1.198287 3.351218 3.851922
vertex 1.201932 3.353473 4.024203
vertex 1.951284 3.494357 6.280217
endloop
endfacet
facet normal -0.156618 0.987613 -0.009550
outer loop
vertex 1.251318 3.357759 3.659177
vertex 1.201894 3.351520 3.824054
vertex 1.198287 3.351218 3.851922
endloop
endfacet
facet normal -0.156742 0.987593 -0.009612
outer loop
vertex 1.251318 3.357759 3.659177
vertex 1.198287 3.351218 3.851922
vertex 1.951284 3.494357 6.280217
endloop
endfacet
facet normal -0.189137 -0.000000 0.981951
outer loop
vertex -3.691762 -2.582580 5.193291
vertex 1.951284 -3.488774 6.280216
vertex 1.951284 3.494357 6.280217
endloop
endfacet
facet normal -0.189137 0.000000 0.981951
outer loop
vertex 1.951284 3.494357 6.280217
vertex -3.691762 2.588164 5.193291
vertex -3.691762 -2.582580 5.193291
endloop
endfacet
facet normal -0.998126 0.000000 -0.061197
outer loop
vertex -3.691762 -2.582580 5.193291
vertex -3.691762 2.588164 5.193291
vertex -3.433519 2.588164 0.981315
endloop
endfacet
facet normal -0.998126 0.000000 -0.061197
outer loop
vertex -3.433519 2.588164 0.981315
vertex -3.433519 -2.582578 0.981316
vertex -3.691762 -2.582580 5.193291
endloop
endfacet
facet normal -0.145841 0.471046 -0.869969
outer loop
vertex -3.147694 2.325416 0.998840
vertex 2.017492 3.141062 0.574587
vertex 1.716769 2.754369 0.415624
endloop
endfacet
facet normal -0.137050 0.251532 -0.958096
outer loop
vertex 1.716769 2.754369 0.415624
vertex -2.830329 2.037189 0.877774
vertex -3.147694 2.325416 0.998840
endloop
endfacet
facet normal -0.147616 -0.487051 -0.860808
outer loop
vertex 1.716769 -2.772221 0.415624
vertex 2.017493 -3.144312 0.574586
vertex -3.147694 -2.328665 0.998840
endloop
endfacet
facet normal -0.138402 -0.262052 -0.955078
outer loop
vertex -3.147694 -2.328665 0.998840
vertex -2.830329 -2.055041 0.877774
vertex 1.716769 -2.772221 0.415624
endloop
endfacet
facet normal 0.999917 0.000000 0.012917
outer loop
vertex 1.716769 2.754369 0.415624
vertex 1.716769 -2.772221 0.415624
vertex 1.721226 -2.734908 0.070608
endloop
endfacet
facet normal 0.999916 0.000000 0.012917
outer loop
vertex 1.721226 -2.734908 0.070608
vertex 1.721226 2.791682 0.070607
vertex 1.716769 2.754369 0.415624
endloop
endfacet
facet normal -0.156742 0.987593 -0.009611
outer loop
vertex -3.691762 2.588164 5.193291
vertex 1.951284 3.494357 6.280217
vertex -0.086242 3.151467 4.275194
endloop
endfacet
facet normal -0.156742 0.987593 -0.009610
outer loop
vertex -3.691762 2.588164 5.193291
vertex -0.086242 3.151467 4.275194
vertex -2.917537 2.698315 3.885345
endloop
endfacet
facet normal -0.156742 0.987593 -0.009610
outer loop
vertex -2.700137 2.715310 2.086089
vertex -2.247501 2.787755 2.148412
vertex -3.433519 2.588164 0.981315
endloop
endfacet
facet normal -0.156745 0.987592 -0.009604
outer loop
vertex -2.011075 2.827542 2.381067
vertex -2.213515 2.793475 2.181857
vertex -2.703889 2.714989 2.114336
endloop
endfacet
facet normal -0.156756 0.987591 -0.009604
outer loop
vertex -2.703889 2.714989 2.114336
vertex -2.700137 2.715310 2.086089
vertex -3.433519 2.588164 0.981315
endloop
endfacet
facet normal -0.156743 0.987593 -0.009610
outer loop
vertex -3.433519 2.588164 0.981315
vertex -3.691762 2.588164 5.193291
vertex -2.917537 2.698315 3.885345
endloop
endfacet
facet normal -0.156742 0.987593 -0.009617
outer loop
vertex -2.913565 2.698677 3.857784
vertex -0.119446 3.145880 4.242519
vertex -0.322606 3.111690 4.042601
endloop
endfacet
facet normal -0.156710 0.987598 -0.009616
outer loop
vertex -3.433519 2.588164 0.981315
vertex -2.917537 2.698315 3.885345
vertex -2.913565 2.698677 3.857784
endloop
endfacet
facet normal -0.156740 0.987593 -0.009613
outer loop
vertex -2.700266 2.717237 2.286169
vertex -2.011075 2.827542 2.381067
vertex -2.703889 2.714989 2.114336
endloop
endfacet
facet normal -0.156742 0.987593 -0.009610
outer loop
vertex -2.913565 2.698677 3.857784
vertex -0.322606 3.111690 4.042601
vertex -2.917233 2.696417 3.685339
endloop
endfacet
facet normal -0.156742 0.987593 -0.009613
outer loop
vertex -2.913672 2.696713 3.657648
vertex -0.355913 3.106085 4.009825
vertex -0.558969 3.071913 3.810009
endloop
endfacet
facet normal -0.156752 0.987591 -0.009609
outer loop
vertex -3.433519 2.588164 0.981315
vertex -2.913565 2.698677 3.857784
vertex -2.917233 2.696417 3.685339
endloop
endfacet
facet normal -0.156741 0.987593 -0.009609
outer loop
vertex -2.913672 2.696713 3.657648
vertex -0.558969 3.071913 3.810009
vertex -2.864201 2.702958 3.492594
endloop
endfacet
facet normal -0.156786 0.987586 -0.009613
outer loop
vertex -3.433519 2.588164 0.981315
vertex -2.917233 2.696417 3.685339
vertex -2.913672 2.696713 3.657648
endloop
endfacet
facet normal -0.156734 0.987594 -0.009615
outer loop
vertex -2.700266 2.717237 2.286169
vertex -2.703889 2.714989 2.114336
vertex -3.433519 2.588164 0.981315
endloop
endfacet
facet normal -0.156744 0.987593 -0.009607
outer loop
vertex -1.774645 2.867331 2.613726
vertex -1.977151 2.833252 2.414450
vertex -2.704194 2.716887 2.314342
endloop
endfacet
facet normal -0.156777 0.987587 -0.009589
outer loop
vertex -2.704194 2.716887 2.314342
vertex -2.700266 2.717237 2.286169
vertex -3.433519 2.588164 0.981315
endloop
endfacet
facet normal -0.156736 0.987594 -0.009611
outer loop
vertex -3.433519 2.588164 0.981315
vertex -2.913672 2.696713 3.657648
vertex -2.864201 2.702958 3.492594
endloop
endfacet
facet normal -0.156742 0.987593 -0.009612
outer loop
vertex -2.860240 2.703317 3.464861
vertex -0.592376 3.066291 3.777134
vertex -0.795333 3.032136 3.577415
endloop
endfacet
facet normal -0.156772 0.987588 -0.009602
outer loop
vertex -3.433519 2.588164 0.981315
vertex -2.864201 2.702958 3.492594
vertex -2.860240 2.703317 3.464861
endloop
endfacet
facet normal -0.156741 0.987593 -0.009611
outer loop
vertex -2.753513 2.710662 2.478945
vertex -1.774645 2.867331 2.613726
vertex -2.704194 2.716887 2.314342
endloop
endfacet
facet normal -0.156742 0.987593 -0.009612
outer loop
vertex -2.860240 2.703317 3.464861
vertex -0.795333 3.032136 3.577415
vertex -2.863897 2.701060 3.292589
endloop
endfacet
facet normal -0.156743 0.987593 -0.009607
outer loop
vertex -2.860283 2.701362 3.264733
vertex -0.828841 3.026497 3.544441
vertex -1.031696 2.992360 3.344822
endloop
endfacet
facet normal -0.156734 0.987594 -0.009614
outer loop
vertex -3.433519 2.588164 0.981315
vertex -2.860240 2.703317 3.464861
vertex -2.863897 2.701060 3.292589
endloop
endfacet
facet normal -0.156743 0.987593 -0.009607
outer loop
vertex -2.860283 2.701362 3.264733
vertex -1.031696 2.992360 3.344822
vertex -2.810866 2.707601 3.099844
endloop
endfacet
facet normal -0.156708 0.987598 -0.009614
outer loop
vertex -3.433519 2.588164 0.981315
vertex -2.863897 2.701060 3.292589
vertex -2.860283 2.701362 3.264733
endloop
endfacet
facet normal -0.156738 0.987593 -0.009615
outer loop
vertex -2.753513 2.710662 2.478945
vertex -2.704194 2.716887 2.314342
vertex -3.433519 2.588164 0.981315
endloop
endfacet
facet normal -0.156744 0.987593 -0.009607
outer loop
vertex -1.538217 2.907118 2.846381
vertex -1.740787 2.873029 2.647043
vertex -2.757225 2.710346 2.507087
endloop
endfacet
facet normal -0.156776 0.987588 -0.009591
outer loop
vertex -2.757225 2.710346 2.507087
vertex -2.753513 2.710662 2.478945
vertex -3.433519 2.588164 0.981315
endloop
endfacet
facet normal -0.156746 0.987592 -0.009610
outer loop
vertex -3.433519 2.588164 0.981315
vertex -2.860283 2.701362 3.264733
vertex -2.810866 2.707601 3.099844
endloop
endfacet
facet normal -0.156742 0.987593 -0.009618
outer loop
vertex -2.806916 2.707956 3.071938
vertex -1.065306 2.986704 3.311749
vertex -1.268060 2.952582 3.112229
endloop
endfacet
facet normal -0.156724 0.987596 -0.009618
outer loop
vertex -3.433519 2.588164 0.981315
vertex -2.810866 2.707601 3.099844
vertex -2.806916 2.707956 3.071938
endloop
endfacet
facet normal -0.156742 0.987593 -0.009607
outer loop
vertex -2.753591 2.712596 2.679031
vertex -1.538217 2.907118 2.846381
vertex -2.757225 2.710346 2.507087
endloop
endfacet
facet normal -0.156743 0.987593 -0.009607
outer loop
vertex -2.806916 2.707956 3.071938
vertex -1.268060 2.952582 3.112229
vertex -2.810561 2.705703 2.899838
endloop
endfacet
facet normal -0.156741 0.987593 -0.009611
outer loop
vertex -2.806894 2.706013 2.871819
vertex -1.301768 2.946910 3.079059
vertex -1.504424 2.912805 2.879636
endloop
endfacet
facet normal -0.156745 0.987592 -0.009607
outer loop
vertex -3.433519 2.588164 0.981315
vertex -2.806916 2.707956 3.071938
vertex -2.810561 2.705703 2.899838
endloop
endfacet
facet normal -0.156742 0.987593 -0.009614
outer loop
vertex -2.806894 2.706013 2.871819
vertex -1.504424 2.912805 2.879636
vertex -2.757530 2.712244 2.707092
endloop
endfacet
facet normal -0.156802 0.987584 -0.009591
outer loop
vertex -3.433519 2.588164 0.981315
vertex -2.810561 2.705703 2.899838
vertex -2.806894 2.706013 2.871819
endloop
endfacet
facet normal -0.156742 0.987593 -0.009611
outer loop
vertex -2.753591 2.712596 2.679031
vertex -2.757225 2.710346 2.507087
vertex -3.433519 2.588164 0.981315
endloop
endfacet
facet normal -0.156730 0.987595 -0.009625
outer loop
vertex -2.806894 2.706013 2.871819
vertex -2.757530 2.712244 2.707092
vertex -2.753591 2.712596 2.679031
endloop
endfacet
facet normal -0.156735 0.987594 -0.009612
outer loop
vertex -2.806894 2.706013 2.871819
vertex -2.753591 2.712596 2.679031
vertex -3.433519 2.588164 0.981315
endloop
endfacet
facet normal 0.061199 -0.000000 -0.998126
outer loop
vertex -3.433519 -2.582578 0.981316
vertex -3.433519 2.588164 0.981315
vertex -3.147694 2.325416 0.998840
endloop
endfacet
facet normal 0.061196 0.000000 -0.998126
outer loop
vertex -3.147694 2.325416 0.998840
vertex -3.147694 -2.328665 0.998840
vertex -3.433519 -2.582578 0.981316
endloop
endfacet
facet normal -0.154308 0.982506 0.104264
outer loop
vertex 1.716769 2.754369 0.415624
vertex 1.721226 2.791682 0.070607
vertex -2.849293 2.074503 0.064528
endloop
endfacet
facet normal -0.150768 0.987363 0.048818
outer loop
vertex -2.849293 2.074503 0.064528
vertex -2.830329 2.037189 0.877774
vertex 1.716769 2.754369 0.415624
endloop
endfacet
facet normal -0.153967 -0.982134 -0.108203
outer loop
vertex -2.849293 -2.017727 0.064528
vertex 1.721226 -2.734908 0.070608
vertex 1.716769 -2.772221 0.415624
endloop
endfacet
facet normal -0.159779 -0.986279 -0.041528
outer loop
vertex 1.716769 -2.772221 0.415624
vertex -2.830329 -2.055041 0.877774
vertex -2.849293 -2.017727 0.064528
endloop
endfacet
facet normal 0.001330 -0.000000 -0.999999
outer loop
vertex -2.849293 2.074503 0.064528
vertex 1.721226 2.791682 0.070607
vertex 1.721226 -2.734908 0.070608
endloop
endfacet
facet normal 0.001330 0.000000 -0.999999
outer loop
vertex 1.721226 -2.734908 0.070608
vertex -2.849293 -2.017727 0.064528
vertex -2.849293 2.074503 0.064528
endloop
endfacet
facet normal -0.356420 0.000000 -0.934326
outer loop
vertex -3.147694 -2.328665 0.998840
vertex -3.147694 2.325416 0.998840
vertex -2.830329 2.037189 0.877774
endloop
endfacet
facet normal -0.356420 0.000000 -0.934326
outer loop
vertex -2.830329 2.037189 0.877774
vertex -2.830329 -2.055041 0.877774
vertex -3.147694 -2.328665 0.998840
endloop
endfacet
facet normal -0.999728 0.000000 0.023313
outer loop
vertex -2.830329 2.037189 0.877774
vertex -2.849293 2.074503 0.064528
vertex -2.849293 -2.017727 0.064528
endloop
endfacet
facet normal -0.999728 0.000000 0.023313
outer loop
vertex -2.849293 -2.017727 0.064528
vertex -2.830329 -2.055041 0.877774
vertex -2.830329 2.037189 0.877774
endloop
endfacet
facet normal -0.160629 -0.986971 -0.009339
outer loop
vertex -3.344153 -2.501524 1.070445
vertex 2.209381 -3.401605 0.673653
vertex 1.875079 -3.399364 6.186950
endloop
endfacet
facet normal -0.159959 -0.987073 -0.010040
outer loop
vertex 1.875079 -3.399364 6.186950
vertex -3.589216 -2.502981 5.118135
vertex -3.344153 -2.501524 1.070445
endloop
endfacet
facet normal -0.156742 -0.987593 -0.009610
outer loop
vertex -3.691762 -2.582580 5.193291
vertex -3.433519 -2.582578 0.981316
vertex 2.300046 -3.488772 0.591911
endloop
endfacet
facet normal -0.156742 -0.987593 -0.009610
outer loop
vertex 2.300046 -3.488772 0.591911
vertex 1.951284 -3.488774 6.280216
vertex -3.691762 -2.582580 5.193291
endloop
endfacet
endsolid Exported from Blender-2.77 (sub 0)
